<?xml version="1.0" encoding="utf-8"?><!-- Uploaded to: SVG Repo, www.svgrepo.com, Generator: SVG Repo Mixer Tools -->
<svg width="800px" height="800px" viewBox="-8 0 80.01 80.01" xmlns="http://www.w3.org/2000/svg">
  <path id="One_WTC" data-name="One WTC" d="M464.544,203.486A32,32,0,0,1,474,142.138v2.011A29.987,29.987,0,0,0,456,195.4V162h-.021v-2H464v-2h-.019v-2H474l0-6a3.005,3.005,0,0,1,2-2.828v-3.154h0v-.35l0-16.676a1,1,0,1,1,2,0l0,15.025h0v2h0v3.153A3,3,0,0,1,480,150l0,6h9.981v1H490v3h7.981v1H498v34.4a29.987,29.987,0,0,0-18-51.256v-2.011a32,32,0,1,1-15.456,61.348ZM477,204a29.867,29.867,0,0,0,9.937-1.691L477,165.217l-9.939,37.092A29.872,29.872,0,0,0,477,204Zm11.811-2.423A30.045,30.045,0,0,0,496,197.2V162H478.209Zm-23.624,0L475.792,162H458v35.2A30.053,30.053,0,0,0,465.187,201.576ZM488,160v-2H466v2Zm-10-4,0-6a1,1,0,1,0-2,0l0,6Zm-8,46v-2h13.982v2Zm19.968-4v-2h4.024v2ZM471,198v-2h11.983v2Zm-11.024-2H464v2h-4.024ZM489,194v-2h4.993v2Zm-17,0v-2h9.986v2Zm-12.024-2H465v2h-5.024ZM488,190v-2h5.993v2Zm-15,0v-2h7.989v2Zm-13.024-2H466v2h-6.024ZM487,186v-2h6.993v2Zm-13,0v-2h5.992v2Zm-14.024-2H467v2h-7.024ZM486,182v-2h7.993v2Zm-11,0v-2h3.994v2Zm-15.024-2H468v2l-8.023,0ZM485,178v-2h8.993v2Zm-9,0v-2h2v2Zm-16.024-2H469v2h-9.023ZM484,174v-2h9.993v2Zm-24.024-2H470v2l-10.023,0ZM483,170v-2h10.993v2Zm-23.024-2H471v2H459.977ZM482,166v-2h12v2Zm-22.02,0v-2h12v2Z" transform="translate(-445 -125.99)" fill="#000000"/>
</svg>